<svg xmlns="http://www.w3.org/2000/svg" xmlns:xlink="http://www.w3.org/1999/xlink" width="500" zoomAndPan="magnify" viewBox="0 0 375 374.999991" height="500" preserveAspectRatio="xMidYMid meet" version="1.0"><defs><g/><clipPath id="73a847ee9c"><rect x="0" width="179" y="0" height="140"/></clipPath><clipPath id="affabf2ae4"><path d="M 0.28125 127 L 149 127 L 149 143 L 0.28125 143 Z M 0.28125 127 " clip-rule="nonzero"/></clipPath><clipPath id="b06707df58"><path d="M 8 0.480469 L 25 0.480469 L 25 147 L 8 147 Z M 8 0.480469 " clip-rule="nonzero"/></clipPath><clipPath id="7e69e48e21"><rect x="0" width="151" y="0" height="148"/></clipPath><clipPath id="0969b1a657"><path d="M 2 4 L 150.640625 4 L 150.640625 20 L 2 20 Z M 2 4 " clip-rule="nonzero"/></clipPath><clipPath id="bbcda4e180"><path d="M 126 0 L 143 0 L 143 146.398438 L 126 146.398438 Z M 126 0 " clip-rule="nonzero"/></clipPath><clipPath id="798a15bcfb"><rect x="0" width="151" y="0" height="147"/></clipPath></defs><g transform="matrix(1, 0, 0, 1, 96, 132)"><g clip-path="url(#73a847ee9c)"><g fill="#ffffff" fill-opacity="1"><g transform="translate(4.291887, 100.428547)"><g><path d="M 53.796875 -92.65625 L 91.203125 0 L 68.515625 0 L 61.65625 -18.53125 L 26.390625 -18.53125 L 19.546875 0 L -3.140625 0 L 34.25 -92.65625 Z M 54.46875 -37.0625 L 44.140625 -64.015625 L 43.921875 -64.015625 L 33.578125 -37.0625 Z M 54.46875 -37.0625 "/></g></g></g><g fill="#ffffff" fill-opacity="1"><g transform="translate(82.779631, 100.428547)"><g/></g></g><g fill="#ffffff" fill-opacity="1"><g transform="translate(103.887325, 100.428547)"><g><path d="M 6.734375 -92.65625 L 40.546875 -92.65625 C 49.984375 -92.65625 57.617188 -90.222656 63.453125 -85.359375 C 69.296875 -80.492188 72.21875 -73.414062 72.21875 -64.125 C 72.21875 -54.84375 69.257812 -47.5625 63.34375 -42.28125 C 57.425781 -37.007812 49.828125 -34.375 40.546875 -34.375 L 27.859375 -34.375 L 27.859375 0 L 6.734375 0 Z M 27.859375 -51.21875 L 33.8125 -51.21875 C 38.519531 -51.21875 42.390625 -52.171875 45.421875 -54.078125 C 48.460938 -55.984375 49.984375 -59.109375 49.984375 -63.453125 C 49.984375 -67.867188 48.460938 -71.03125 45.421875 -72.9375 C 42.390625 -74.851562 38.519531 -75.8125 33.8125 -75.8125 L 27.859375 -75.8125 Z M 27.859375 -51.21875 "/></g></g></g></g></g><g transform="matrix(1, 0, 0, 1, 59, 126)"><g clip-path="url(#7e69e48e21)"><g clip-path="url(#affabf2ae4)"><path stroke-linecap="butt" transform="matrix(1.572579, 0, 0, 1.572579, 8.349143, 127.172415)" fill="none" stroke-linejoin="miter" d="M -0.000945446 4.999904 L 84.431939 4.999904 " stroke="#ffffff" stroke-width="10" stroke-opacity="1" stroke-miterlimit="4"/></g><g clip-path="url(#b06707df58)"><path stroke-linecap="butt" transform="matrix(0, 1.572579, -1.572579, 0, 24.066864, 8.50839)" fill="none" stroke-linejoin="miter" d="M -0.000366956 5.000538 L 82.462723 5.000538 " stroke="#ffffff" stroke-width="10" stroke-opacity="1" stroke-miterlimit="4"/></g></g></g><g transform="matrix(1, 0, 0, 1, 164, 102)"><g clip-path="url(#798a15bcfb)"><g clip-path="url(#0969b1a657)"><path stroke-linecap="butt" transform="matrix(-1.572579, 0, 0, -1.572579, 142.645659, 19.820317)" fill="none" stroke-linejoin="miter" d="M 0.000716984 5.00025 L 84.433601 5.00025 " stroke="#ffffff" stroke-width="10" stroke-opacity="1" stroke-miterlimit="4"/></g><g clip-path="url(#bbcda4e180)"><path stroke-linecap="butt" transform="matrix(0, -1.572579, 1.572579, 0, 126.927945, 138.48435)" fill="none" stroke-linejoin="miter" d="M -0.0000160194 4.998871 L 82.463074 4.998871 " stroke="#ffffff" stroke-width="10" stroke-opacity="1" stroke-miterlimit="4"/></g></g></g></svg>